PathFileType	4	(X/Y/Z)	C:/Users/opensim2020/Desktop/walking_exp_matlab/subject06_walking20_straight_02.trc	
DataRate	CameraRate	NumFrames	NumMarkers	Units	OrigDataRate	OrigDataStartFrame	OrigNumFrames	
100.00	100.00	7	43	mm	100.00	1281	105	
Frame#	Time	LFHD			RFHD			LBHD			RBHD			C7			T10			CLAV			STRN			RBAK			LSHO			LUPA			LELB			LFRM			LWRA			LWRB			LFIN			RSHO			RUPA			RELB			RFRM			RWRA			RWRB			RFIN			LASI			RASI			LPSI			RPSI			LTHI			LKNE			LTIB			LANK			LHEE			LTOE			RTHI			RKNE			RTIB			RANK			RHEE			RTOE			*39			*40			*41			*42			
		X1	Y1	Z1	X2	Y2	Z2	X3	Y3	Z3	X4	Y4	Z4	X5	Y5	Z5	X6	Y6	Z6	X7	Y7	Z7	X8	Y8	Z8	X9	Y9	Z9	X10	Y10	Z10	X11	Y11	Z11	X12	Y12	Z12	X13	Y13	Z13	X14	Y14	Z14	X15	Y15	Z15	X16	Y16	Z16	X17	Y17	Z17	X18	Y18	Z18	X19	Y19	Z19	X20	Y20	Z20	X21	Y21	Z21	X22	Y22	Z22	X23	Y23	Z23	X24	Y24	Z24	X25	Y25	Z25	X26	Y26	Z26	X27	Y27	Z27	X28	Y28	Z28	X29	Y29	Z29	X30	Y30	Z30	X31	Y31	Z31	X32	Y32	Z32	X33	Y33	Z33	X34	Y34	Z34	X35	Y35	Z35	X36	Y36	Z36	X37	Y37	Z37	X38	Y38	Z38	X39	Y39	Z39	X40	Y40	Z40	X41	Y41	Z41	X42	Y42	Z42	X43	Y43	Z43	

40	0.390	1523.57788	574.92950	1673.10168	1392.22375	581.58105	1661.21289	1530.48828	708.76379	1618.33362	1402.13000	713.59589	1612.33289	1474.04895	708.59161	1456.57715	1465.31970	733.42963	1128.81982	1466.17078	595.56622	1384.01855	1468.87146	549.87128	1209.52502	1399.33325	779.78168	1285.30322	1630.50195	644.23865	1414.46826	1705.21619	649.62408	1213.96289	1718.10437	657.90973	1101.42261	1742.77600	634.94043	954.24237	1697.80273	581.25281	835.63495	1743.50464	637.26306	835.39166	1740.83728	601.11206	751.27850	1308.94958	654.83429	1414.58813	1222.05615	710.77344	1221.44177	1211.35156	711.86163	1098.64868	1194.80042	703.06799	978.30664	1227.46936	648.61188	837.16803	1187.79382	703.10004	840.11768	1187.92786	670.12140	762.07587	1562.18872	546.43597	973.43231	1345.18262	569.37335	971.95508	1548.42468	704.65112	1001.49487	1381.72681	716.03339	993.23383	1633.67932	598.66217	659.78607	1610.19312	597.59167	495.99094	1610.10510	644.35864	241.94965	1568.41565	662.07690	70.55003	1526.72485	705.84399	55.07757	1553.14673	519.66656	40.97339	1307.32397	562.17511	635.61975	1332.90723	519.22290	517.41833	1346.02356	671.96820	310.94122	1392.06567	789.29266	168.47826	1440.57117	833.37982	165.14243	1379.67310	682.18604	62.29943	1469.27979	678.79413	1710.89697									 
41	0.400	1523.15918	560.78265	1673.32251	1391.89624	567.55273	1661.08948	1530.39624	694.61920	1618.79663	1402.04773	699.59869	1612.42664	1474.46973	694.63062	1456.87122	1465.95825	719.72980	1129.10181	1466.44360	581.65448	1384.23657	1469.54517	536.11157	1209.64563	1400.34448	765.98895	1285.52588	1630.72046	630.05200	1415.08057	1706.23865	632.46790	1214.88440	1719.68311	638.82813	1102.08435	1744.23450	610.90790	955.43951	1699.39453	552.67078	839.29834	1744.54553	608.92261	836.62164	1742.26587	569.23767	754.29810	1309.27014	641.23883	1414.51306	1222.94177	699.51086	1221.98401	1212.03882	702.07300	1099.20239	1195.30225	695.86664	978.64026	1227.29993	644.01038	836.16187	1187.97217	698.86176	840.58014	1187.92126	667.86566	761.59961	1563.84460	534.24554	972.81989	1346.77026	555.76367	972.19098	1548.45227	692.15942	1001.42114	1381.53735	702.14099	993.81104	1633.71460	590.90265	658.99622	1610.44092	592.07477	495.10883	1609.80713	642.43250	241.85455	1567.84473	661.62323	70.74065	1526.93933	706.54156	56.85328	1553.23975	519.35510	40.74060	1306.98401	543.69092	637.46881	1332.87964	498.98013	520.49194	1345.21814	643.63904	307.38889	1390.75562	753.54950	158.87401	1439.63000	797.30139	152.77290	1376.64954	640.80963	59.83198	1468.90747	664.54614	1711.14319									 
42	0.410	1522.62073	546.49915	1673.25549	1391.54822	553.40350	1660.75500	1529.86841	680.03693	1618.80518	1401.85840	685.57507	1612.24146	1474.74121	680.62445	1456.80737	1466.41956	706.04779	1128.99585	1466.69336	567.71405	1384.10925	1470.24121	522.23431	1209.47327	1401.23682	752.17712	1285.34851	1630.91406	615.67609	1415.30676	1706.86157	614.71362	1215.63721	1721.40869	619.85236	1102.32922	1746.58118	586.78003	957.04608	1700.91992	524.10034	842.98474	1745.49341	580.53857	837.78711	1743.45898	537.18292	757.44806	1309.48254	627.56757	1414.06177	1223.66956	688.13635	1222.11768	1212.65320	692.29413	1099.41150	1195.71619	688.56982	978.73724	1227.18970	639.72083	835.06445	1188.10815	694.59052	840.76416	1187.68896	665.48260	760.94586	1565.53833	522.12469	971.93982	1348.09204	540.95776	972.47595	1548.31250	679.86267	1000.96686	1381.22644	688.12708	994.02167	1633.84534	582.67480	658.24420	1610.67908	586.35785	494.32162	1609.38196	639.78284	241.66411	1567.25684	661.10919	70.83699	1526.25964	705.75952	56.93289	1553.22961	518.91327	40.50555	1306.03174	525.41498	639.39746	1332.68213	479.25406	523.23877	1344.08752	615.09583	303.44888	1389.58521	717.30334	149.35609	1438.35095	760.32996	140.39709	1373.84338	598.81769	57.36142	1468.42969	650.26508	1711.06909									 
43	0.420	1522.52698	532.06628	1673.19604	1391.11780	539.35681	1660.15161	1529.96375	666.07922	1618.78040	1401.63367	671.41779	1611.81409	1475.00659	666.58276	1456.50354	1466.81067	692.40118	1128.50208	1466.81909	553.77832	1383.65063	1470.89819	508.48978	1208.95947	1402.13989	738.41022	1284.81543	1631.09998	601.51080	1414.98254	1708.21460	598.17065	1215.15320	1723.26892	600.82941	1102.31531	1748.00916	562.83276	957.90637	1702.56592	495.75266	846.65784	1746.34631	552.12067	838.96454	1744.50183	505.24170	760.66290	1309.60095	613.83118	1413.29675	1224.39661	676.70172	1221.91748	1213.19092	682.44165	1099.30615	1196.03491	681.17108	978.56848	1226.67529	635.30701	833.82098	1188.22803	690.24249	840.75153	1187.47388	662.66156	760.38324	1567.28662	509.94211	970.86292	1349.62610	527.15997	971.86926	1548.05591	667.69202	1000.31281	1380.82141	674.34381	994.07178	1633.97046	574.54865	657.49951	1610.90930	580.36926	493.48495	1609.17676	636.58771	241.46664	1566.90747	660.57831	70.97639	1526.45276	706.18707	58.14138	1553.32983	518.55804	40.29860	1305.06738	507.28012	641.03302	1332.38892	459.86533	525.69452	1342.81262	586.53058	299.42072	1387.76611	680.34625	139.89116	1437.16748	722.38434	128.25967	1371.06177	556.61578	55.12675	1467.98364	635.96759	1710.74097									 
44	0.430	1522.02612	517.68451	1672.63562	1390.72021	525.12823	1659.28699	1529.68469	651.74738	1618.34216	1401.40063	657.25580	1611.08740	1475.21704	652.50348	1455.96143	1467.06616	678.83588	1127.73132	1466.90588	541.31696	1382.44067	1471.58484	494.79691	1208.20142	1402.89612	724.59802	1283.98242	1631.06055	586.92157	1414.18481	1709.14734	581.01886	1214.76563	1724.92725	581.85028	1101.86963	1749.59448	538.83417	958.72662	1703.91101	467.23956	850.65668	1747.19531	523.57202	840.43280	1745.34570	473.18628	764.30603	1309.64502	600.09009	1412.25195	1225.07202	665.21948	1221.47485	1213.68494	672.43878	1098.98010	1196.36670	673.56573	978.23175	1226.12952	630.35455	832.55695	1188.32019	685.67108	840.62109	1186.98303	659.87561	759.69604	1569.02454	497.85715	969.56213	1350.92798	512.72314	971.42010	1547.67236	655.55621	999.44006	1380.30127	660.40033	993.78589	1633.55664	566.09473	656.54468	1611.08582	574.19855	492.61575	1608.92505	633.52209	241.17451	1566.73145	660.07013	71.15403	1526.02197	705.58624	58.35677	1553.25171	518.09052	40.02807	1303.77844	489.20596	642.60431	1331.82764	441.18246	527.72662	1341.22363	557.73114	295.38342	1386.05798	642.22272	130.68132	1435.56641	683.77338	116.47954	1368.82483	514.11932	52.91680	1467.47937	621.61896	1710.13550									 
45	0.440	1520.62463	503.01727	1671.22876	1390.17712	510.95258	1658.18774	1529.33582	637.32257	1617.64319	1401.08606	643.03662	1610.12427	1475.41577	638.41174	1455.23096	1467.17322	665.29346	1126.73633	1466.99744	525.83826	1382.04651	1472.20691	481.05212	1207.20374	1403.48901	710.78516	1282.93494	1631.25684	572.76575	1413.18091	1709.95764	563.91595	1214.03625	1726.40234	562.87952	1100.99097	1750.82922	514.95715	959.43707	1705.02588	438.78513	854.93695	1747.66077	494.99036	841.84979	1746.09851	441.13425	768.36182	1309.61816	586.26587	1410.95569	1225.75220	653.45129	1220.85303	1214.21179	662.12787	1098.40942	1196.59265	665.70990	977.72302	1225.45215	625.41998	831.20477	1188.31226	680.97662	840.34314	1186.34265	656.83508	759.01208	1570.48730	485.52328	968.20496	1352.30347	498.30948	970.73560	1547.18494	643.42023	998.37073	1379.73779	646.42456	993.25952	1633.44800	557.63135	655.50061	1611.10693	567.79730	491.57324	1608.49500	630.61646	241.00017	1566.44177	659.61041	71.31619	1525.73071	705.27271	58.79316	1553.25330	517.86475	39.90899	1302.60681	471.66837	643.79791	1331.05725	422.83099	529.34949	1339.62012	529.24207	291.31274	1384.16016	603.93164	121.86248	1433.69824	644.69373	105.38350	1366.22327	471.73550	51.32505	1466.94861	607.16675	1709.27356									 
46	0.450	1520.17371	488.50037	1670.22607	1389.62390	496.66284	1656.84937	1529.06055	622.84802	1616.72021	1400.77966	628.71765	1608.86755	1475.49414	624.21490	1454.27368	1467.19897	651.80945	1125.61926	1467.06250	512.28766	1380.63794	1472.75513	467.50345	1205.82776	1404.02966	697.06946	1281.83044	1631.46704	558.51056	1411.90552	1710.69861	547.01434	1212.97913	1727.87830	544.02722	1100.14465	1752.10608	491.06332	960.33240	1705.95142	410.54794	859.48724	1747.99866	466.40988	843.51855	1746.60327	409.27908	772.85938	1309.60095	572.36060	1409.50403	1226.35339	641.57623	1220.00317	1214.67297	651.59961	1097.65088	1196.84985	657.54504	977.09796	1224.67529	620.11780	829.70123	1188.25635	675.90503	840.05511	1185.75037	653.21448	758.37695	1571.81323	473.57999	966.47705	1353.34094	483.51965	969.88538	1546.70056	631.17645	997.14917	1379.24109	632.36285	992.42224	1633.27136	548.90710	654.28510	1610.97693	561.22546	490.45523	1607.98633	627.36218	240.79507	1566.02722	659.05194	71.48100	1525.32654	705.17114	59.45674	1553.20227	517.71460	39.79701	1301.34192	454.44562	644.73077	1330.07898	405.11526	530.59619	1337.92224	500.59967	287.23804	1382.14893	565.21204	113.55077	1431.77478	604.79034	94.81660	1363.78137	429.33701	50.01600	1466.36182	592.67255	1708.18152									 
